<svg width="100" height="100" viewBox="0 0 100 100" fill="none" xmlns="http://www.w3.org/2000/svg">
<path d="M88 50C88 70.9868 70.9868 88 50 88C29.0132 88 12 70.9868 12 50C12 29.0132 29.0132 12 50 12C70.9868 12 88 29.0132 88 50Z" stroke="black" stroke-width="3" stroke-linecap="round" stroke-linejoin="round"></path>
<path d="M50.0005 10.5C71.8157 10.5 89.5005 28.1848 89.5005 50C89.5005 71.8152 71.8157 89.5 50.0005 89.5V71.3867C50.3454 71.6221 50.727 71.854 51.1499 72.0586C52.2618 72.5966 53.5654 72.917 55.2085 72.917C56.8128 72.917 58.0989 72.5903 59.2026 72.0605C60.262 71.5521 61.0891 70.882 61.7192 70.3779C62.3911 69.8405 62.866 69.468 63.4341 69.1953C63.9579 68.9439 64.6257 68.75 65.6255 68.75C66.6905 68.75 67.367 68.9502 67.8696 69.1934C68.4141 69.4569 68.8553 69.8147 69.4995 70.3516C70.3833 71.0877 71.6985 70.9684 72.435 70.085C73.1716 69.2011 73.0522 67.8851 72.1684 67.1484C71.563 66.6439 70.7537 65.9599 69.6841 65.4424C69.3344 65.2732 68.9649 65.1288 68.5727 65.0059C70.0858 61.6005 70.8625 57.9009 70.8345 54.1514C70.8291 53.4359 70.457 52.7802 69.8638 52.4053L69.5952 52.2627L66.6675 50.9609V39.583C66.6674 37.9255 66.0084 36.3361 64.8364 35.1641C63.6644 33.992 62.075 33.3331 60.4175 33.333H52.0835V29.167C52.0835 28.0164 51.1511 27.083 50.0005 27.083V10.5Z" fill="black"></path>
<path d="M66.6333 55.5039C66.4649 58.7144 65.5987 61.8501 64.0923 64.6924C63.1668 64.8297 62.3593 65.09 61.6313 65.4395C60.572 65.948 59.7449 66.618 59.1147 67.1221C58.4429 67.6596 57.968 68.032 57.3999 68.3047C56.8761 68.5561 56.2081 68.75 55.2085 68.75C54.1437 68.75 53.4669 68.5498 52.9643 68.3066C52.42 68.0431 51.9796 67.6852 51.3354 67.1484C50.9692 66.8433 50.5283 66.4725 50.0005 66.1123V56.25C51.151 56.25 52.0833 55.3174 52.0835 54.167V49.0391L66.6333 55.5039Z" fill="black"></path>
<path d="M60.4175 37.5C60.9699 37.5001 61.4995 37.7197 61.8901 38.1104C62.2808 38.501 62.5004 39.0306 62.5005 39.583V49.1094L52.5386 44.6826C51.74 44.3278 50.8753 44.1437 50.0015 44.1436L50.0005 37.5H60.4175Z" fill="black"></path>
<path d="M49.9175 37.417H39.5005C38.9481 37.4171 38.4184 37.6367 38.0278 38.0273C37.6372 38.418 37.4176 38.9476 37.4175 39.5V49.0264L47.3794 44.5996C48.178 44.2448 49.0436 44.0607 49.9175 44.0605V56.167L49.7046 56.1562C48.6541 56.0496 47.8346 55.1626 47.8345 54.084V48.9551L33.272 55.4248C33.46 59.8038 34.9453 64.0264 37.5366 67.5537C37.7402 67.4006 37.9579 67.2317 38.1987 67.0391C38.8289 66.5349 39.656 65.8649 40.7153 65.3564C41.8191 64.8267 43.1051 64.5 44.7095 64.5C46.3526 64.5 47.6561 64.8213 48.7681 65.3594C49.1906 65.5639 49.5727 65.794 49.9175 66.0293V71.3037C49.3899 70.9436 48.9486 70.5736 48.5825 70.2686C47.9384 69.7318 47.498 69.3739 46.9536 69.1104C46.4511 68.8672 45.7743 68.667 44.7095 68.667C43.7098 68.667 43.0418 68.8609 42.5181 69.1123C41.9499 69.385 41.4751 69.7574 40.8032 70.2949C40.1731 70.799 39.346 71.469 38.2866 71.9775C37.1828 72.5073 35.8968 72.834 34.2925 72.834C32.6494 72.834 31.3458 72.5135 30.2339 71.9756C29.1643 71.458 28.3549 70.7731 27.7495 70.2686C26.8658 69.5319 26.7464 68.2159 27.4829 67.332C28.2194 66.4486 29.5347 66.3293 30.4184 67.0654C31.0627 67.6023 31.5038 67.9601 32.0483 68.2236C32.351 68.3701 32.7171 68.4991 33.1929 68.5801C30.445 64.2665 29.0013 59.2184 29.0854 54.0498C29.0987 53.239 29.5807 52.5091 30.3218 52.1797L33.2505 50.8779V39.5C33.2506 37.8425 33.9095 36.2531 35.0815 35.0811C36.2536 33.909 37.843 33.2501 39.5005 33.25H47.8345V29.084C47.8345 27.9334 48.7669 27 49.9175 27V37.417Z" fill="black"></path>
</svg>