<svg width="100" height="100" viewBox="0 0 100 100" fill="none" xmlns="http://www.w3.org/2000/svg">
<g clip-path="url(#clip0_2769_8)">
<path fill-rule="evenodd" clip-rule="evenodd" d="M41.5 10C44.4167 10 46.8958 11.0208 48.9375 13.0625C50.9792 15.1042 52 17.5833 52 20.5C52 22.775 51.3445 24.8027 50.0332 26.583C48.7219 28.3633 47.044 29.6317 45 30.3877V34.5H55.5V41.5H45V72.7373C47.0362 72.4334 49.0398 71.9131 51.0127 71.1816C51.0961 73.6089 51.6226 75.9234 52.5146 78.0469C52.4888 78.0558 52.4634 78.0663 52.4375 78.0752C48.7065 79.3585 45.0606 80 41.5 80C37.9394 80 34.2935 79.3585 30.5625 78.0752C26.8292 76.7919 23.4454 75.0419 20.4121 72.8252C17.3788 70.6086 14.8856 68.0121 12.9326 65.0371C10.9798 62.0622 10.0023 58.8832 10 55.5V45L24 55.5L18.5752 60.9248C20.2669 63.8998 22.95 66.4667 26.625 68.625C30.3 70.7833 34.0917 72.154 38 72.7373V41.5H27.5V34.5H38V30.3877C35.9583 29.6294 34.282 28.3594 32.9707 26.5791C31.6594 24.7988 31.0023 22.7726 31 20.5C31 17.5833 32.0208 15.1042 34.0625 13.0625C36.1042 11.0208 38.5833 10 41.5 10ZM41.5 17C40.5083 16.9953 39.6775 17.3311 39.0078 18.0078C38.3381 18.6845 38.0023 19.5153 38 20.5C37.9977 21.4845 38.3337 22.3162 39.0078 22.9951C39.6821 23.6741 40.513 24.0093 41.5 24C42.4917 24 43.3231 23.6648 43.9951 22.9951C44.6671 22.3255 45.0023 21.494 45 20.5C44.9977 19.506 44.6619 18.6751 43.9922 18.0078C43.3225 17.3405 42.4917 17.0047 41.5 17Z" fill="black"></path>
<path d="M71.5 50C82.2696 50 91 58.7304 91 69.5C91 80.2696 82.2696 89 71.5 89C60.7304 89 52 80.2696 52 69.5C52 58.7304 60.7304 50 71.5 50ZM67.5527 56.9268C65.6714 57.0144 63.7944 57.8689 61.8203 59.7617C61.5739 59.998 61.4355 60.3221 61.4355 60.6582V80.8223C61.4355 81.5169 62.0161 82.0808 62.7324 82.0811C63.4489 82.0811 64.0303 81.517 64.0303 80.8223V73.2012C65.5074 71.8942 66.6908 71.4903 67.6768 71.4443C68.8036 71.3919 69.9118 71.7872 71.252 72.4131C73.7755 73.5917 77.1524 75.7186 81.4639 73.6836C81.91 73.473 82.1932 73.0338 82.1934 72.5527V60.5518C82.1932 60.1183 81.9629 59.7143 81.584 59.4844C81.205 59.2547 80.73 59.2313 80.3281 59.4209C77.3749 60.8135 75.3023 59.5092 72.377 58.1426C70.9931 57.4962 69.3767 56.842 67.5527 56.9268ZM67.6768 59.4404C68.8035 59.388 69.9118 59.7831 71.252 60.4092C73.3996 61.4125 76.1645 63.1006 79.5986 62.3281V71.7168C77.0188 72.5943 75.0558 71.3976 72.377 70.1465C70.9931 69.5002 69.3768 68.8458 67.5527 68.9307C66.3849 68.9851 65.2186 69.3354 64.0303 70.0459V61.1973C65.5074 59.8903 66.6908 59.4864 67.6768 59.4404Z" fill="black"></path>
</g>
<defs>
<clipPath id="clip0_2769_8">
<rect width="92" height="92" fill="white" transform="translate(4 3)"></rect>
</clipPath>
</defs>
</svg>