<svg width="100" height="100" viewBox="0 0 100 100" fill="none" xmlns="http://www.w3.org/2000/svg">
<g clip-path="url(#clip0_2769_9)">
<path d="M86.08 10.9201C85.4719 10.3114 84.7498 9.82849 83.955 9.49903C83.1602 9.16958 82.3083 9 81.4479 9C80.5875 9 79.7356 9.16958 78.9408 9.49903C78.1459 9.82849 77.4238 10.3114 76.8158 10.9201L57.1426 30.594C56.2088 31.5294 55.5426 32.6979 55.2133 33.978L53.0391 42.4404C52.9851 42.6509 52.9871 42.8719 53.0447 43.0815C53.1023 43.2911 53.2135 43.482 53.3674 43.6354C53.5214 43.7889 53.7127 43.8995 53.9224 43.9564C54.1322 44.0133 54.3532 44.0145 54.5635 43.9599L63.0231 41.7881C64.3036 41.4599 65.4723 40.7935 66.4069 39.8587L86.08 20.1847C86.6887 19.5766 87.1716 18.8545 87.501 18.0596C87.8304 17.2648 88 16.4128 88 15.5524C88 14.692 87.8304 13.84 87.501 13.0451C87.1716 12.2503 86.6887 11.5282 86.08 10.9201ZM78.5826 12.687C79.3425 11.9271 80.3732 11.5001 81.4479 11.5001C82.5226 11.5001 83.5532 11.9271 84.3131 12.687C85.073 13.447 85.5 14.4777 85.5 15.5524C85.5 16.6271 85.073 17.6578 84.3131 18.4178L82.3663 20.3647L76.6358 14.6339L78.5826 12.687ZM74.8689 16.4009L80.5994 22.1316L64.64 38.0917C64.0215 38.7098 63.248 39.15 62.4008 39.3663L55.9855 41.0158L57.635 34.6003C57.8501 33.7526 58.2905 32.9788 58.9095 32.361L74.8689 16.4009Z" fill="black"></path>
<path d="M87.9999 15.5527C87.9999 14.6923 87.8303 13.8398 87.5009 13.0449C87.2127 12.3496 86.8072 11.7097 86.3027 11.1533L86.08 10.9199C85.548 10.3874 84.9287 9.95131 84.2499 9.62988L83.955 9.49902C83.2597 9.21081 82.5206 9.04482 81.7704 9.00781L81.4482 9C80.5878 9 79.7352 9.16957 78.9403 9.49902C78.1456 9.82848 77.4234 10.3113 76.8153 10.9199L57.1425 30.5938C56.2087 31.529 55.5421 32.6976 55.2128 33.9775L53.039 42.4404L53.0087 42.5996C52.9892 42.7604 53.0017 42.9239 53.0448 43.0811C53.1024 43.2906 53.2132 43.4823 53.3671 43.6357C53.521 43.7892 53.713 43.8992 53.9228 43.9561C54.1324 44.0129 54.3531 44.0145 54.5634 43.96L63.0234 41.7881C64.2235 41.4805 65.3254 40.8757 66.2284 40.0312L66.4071 39.8584L86.08 20.1846C86.6886 19.5765 87.1715 18.8544 87.5009 18.0596C87.7891 17.3642 87.9551 16.6252 87.9921 15.875L87.9999 15.5527ZM80.5995 22.1318L64.6396 38.0918L64.4013 38.3154C63.8273 38.8167 63.1417 39.177 62.4003 39.3662L55.9853 41.0156L57.6347 34.6006C57.8229 33.8588 58.1835 33.1732 58.6855 32.5996L58.9091 32.3613L74.8691 16.4004L80.5995 22.1318ZM59.6161 33.0684C59.1248 33.5587 58.7752 34.1738 58.6044 34.8467L58.6034 34.8496L57.3749 39.625L62.1513 38.3975H62.1532C62.8264 38.2256 63.441 37.8758 63.9325 37.3848L79.1855 22.1318L74.8691 17.8154L59.6161 33.0684ZM84.4999 15.5527C84.4999 14.7434 84.1785 13.9669 83.6064 13.3945C83.0341 12.8222 82.2575 12.5001 81.4482 12.5C80.6387 12.5 79.8623 12.8221 79.29 13.3945L78.0497 14.6338L82.3661 18.9502L83.6064 17.7109C84.1786 17.1386 84.4998 16.3621 84.4999 15.5527ZM85.495 15.7529C85.4454 16.7546 85.0259 17.7054 84.3134 18.418L82.3661 20.3643L76.6357 14.6338L78.5829 12.6875C79.3428 11.9276 80.3735 11.5 81.4482 11.5L81.6484 11.5049C82.65 11.5545 83.6009 11.975 84.3134 12.6875C85.073 13.4474 85.4999 14.4782 85.4999 15.5527L85.495 15.7529ZM88.9999 15.5527C88.9999 16.5444 88.8044 17.5263 88.4247 18.4424C88.045 19.3586 87.4887 20.1916 86.787 20.8926L86.786 20.8916L67.1142 40.5654C66.119 41.5609 64.89 42.2886 63.5419 42.6826L63.2714 42.7568L54.8124 44.9287L54.8114 44.9277C54.4336 45.0253 54.0367 45.024 53.6601 44.9219C53.2826 44.8194 52.9381 44.6199 52.661 44.3438C52.384 44.0676 52.1837 43.7239 52.08 43.3467C51.9763 42.9694 51.9732 42.5704 52.0702 42.1914L54.245 33.7285C54.6188 32.2755 55.3755 30.9484 56.4355 29.8867L76.1083 10.2129L76.3769 9.95703C77.0183 9.37522 77.7559 8.90752 78.5575 8.5752C79.4737 8.19542 80.4564 8 81.4482 8C82.4398 8.00005 83.4217 8.19548 84.3378 8.5752C85.2538 8.9549 86.0861 9.51142 86.787 10.2129L87.0429 10.4814C87.6247 11.1229 88.0924 11.8604 88.4247 12.6621C88.8045 13.5783 88.9999 14.5609 88.9999 15.5527Z" fill="black"></path>
<path d="M51.29 32C53.3486 32 56.2486 31.9777 58 32L57 36.5283C55.301 36.506 53.409 36.5049 51.29 36.5049H39.2773C33.5513 36.5049 29.4826 36.5087 26.3965 36.9238C23.3753 37.3302 21.6342 38.0932 20.3643 39.3642C19.0938 40.6362 18.3334 42.3792 17.9268 45.3994C17.5115 48.4849 17.5049 52.5524 17.5049 58.2773V61.2803C17.5049 67.0062 17.5088 71.075 17.9238 74.1611C18.3302 77.1825 19.0932 78.9244 20.3643 80.1943C21.6362 81.4647 23.3794 82.2242 26.3994 82.6308C29.4849 83.0461 33.5524 83.0537 39.2773 83.0537H51.29C57.0162 83.0537 61.0848 83.0488 64.1709 82.6338C67.1919 82.2274 68.9332 81.4651 70.2031 80.1943C71.4737 78.9224 72.234 77.1786 72.6406 74.1582C73.0559 71.0727 73.0625 67.0051 73.0625 61.2803V58.2773C73.0625 52.5513 73.0586 48.4826 72.6436 45.3965C72.2372 42.3753 71.4741 40.6341 70.2031 39.3642C69.6579 38.8197 69.026 38.3693 68.2441 38L70.2031 36.5283L71 34.3603C71.8611 34.8518 72.6575 35.4482 73.3887 36.1787C75.6366 38.4251 76.6339 41.2757 77.1074 44.7959C77.5722 48.252 77.5674 52.6788 77.5674 58.2773V61.2803C77.5674 66.8786 77.5725 71.304 77.1074 74.7597C76.6335 78.2803 75.6343 81.1313 73.3887 83.3789C71.1423 85.6269 68.2917 86.6241 64.7715 87.0976C61.3153 87.5624 56.8885 87.5586 51.29 87.5586H39.2773C33.6792 87.5586 29.2545 87.5627 25.7988 87.0976C22.2782 86.6237 19.4264 85.6246 17.1787 83.3789C14.931 81.1325 13.9335 78.2827 13.46 74.7627C12.9951 71.3065 13 66.879 13 61.2803V58.2773C13 52.6792 12.9949 48.2544 13.46 44.7988C13.9339 41.2781 14.933 38.4263 17.1787 36.1787C19.4251 33.9307 22.2757 32.9335 25.7959 32.4599C29.252 31.9951 33.6789 32 39.2773 32H51.29Z" fill="black"></path>
<path d="M22.1709 70.9531C25.987 61.4461 40.2489 60.6825 44.3721 70.9531C44.8348 72.1073 44.2732 73.4195 43.1191 73.8828C41.9651 74.3456 40.6529 73.7847 40.1895 72.6308C37.6814 66.3849 28.7592 66.6363 26.3525 72.6308C25.8891 73.7848 24.577 74.3457 23.4229 73.8828C22.2687 73.4195 21.708 72.1073 22.1709 70.9531Z" fill="black"></path>
<path d="M58.7979 68.0381C60.0418 68.0381 61.0498 69.0461 61.0498 70.29C61.0498 71.534 60.0418 72.542 58.7979 72.542H51.29C50.0461 72.542 49.0381 71.534 49.0381 70.29C49.0381 69.0461 50.0461 68.0381 51.29 68.0381H58.7979Z" fill="black"></path>
<path d="M66.3057 57.5263C67.5496 57.5263 68.5586 58.5353 68.5586 59.7793C68.5585 61.0231 67.5495 62.0312 66.3057 62.0312H51.29C50.0462 62.0312 49.0382 61.0231 49.0381 59.7793C49.0381 58.5353 50.0461 57.5264 51.29 57.5263H66.3057Z" fill="black"></path>
<path fill-rule="evenodd" clip-rule="evenodd" d="M33.2715 45.5136C35.2625 45.5137 37.1712 46.306 38.5791 47.7138C39.9871 49.1218 40.7793 51.0312 40.7793 53.0224C40.7792 55.0135 39.987 56.9222 38.5791 58.3301C37.1712 59.7379 35.2625 60.5302 33.2715 60.5303C31.2803 60.5303 29.3709 59.7381 27.9629 58.3301C26.5551 56.9222 25.7638 55.0134 25.7637 53.0224C25.7637 51.0313 26.555 49.1218 27.9629 47.7138C29.3709 46.3058 31.2803 45.5136 33.2715 45.5136ZM33.2715 50.0185C32.475 50.0185 31.7107 50.3352 31.1475 50.8984C30.5843 51.4616 30.2686 52.226 30.2686 53.0224C30.2687 53.8187 30.5845 54.5824 31.1475 55.1455C31.7107 55.7087 32.475 56.0254 33.2715 56.0254C34.0678 56.0253 34.8314 55.7086 35.3945 55.1455C35.9576 54.5824 36.2743 53.8188 36.2744 53.0224C36.2744 52.226 35.9577 51.4616 35.3945 50.8984C34.8314 50.3354 34.0678 50.0186 33.2715 50.0185Z" fill="black"></path>
<path d="M66.3057 47.0156C67.5496 47.0156 68.5586 48.0246 68.5586 49.2685C68.5583 50.5123 67.5494 51.5205 66.3057 51.5205H51.29C50.0463 51.5205 49.0383 50.5122 49.0381 49.2685C49.0381 48.0246 50.0461 47.0156 51.29 47.0156H66.3057Z" fill="black"></path>
</g>
<defs>
<clipPath id="clip0_2769_9">
<rect width="92" height="92" fill="white" transform="translate(4 3)"></rect>
</clipPath>
</defs>
</svg>