<svg width="100" height="100" viewBox="0 0 100 100" fill="none" xmlns="http://www.w3.org/2000/svg">
<path d="M28.7083 74.0834V67.2561C28.7083 66.2666 29.5104 65.4645 30.5 65.4645C31.4895 65.4645 32.2916 66.2666 32.2916 67.2561V74.0834C32.2916 75.0729 31.4895 75.875 30.5 75.875C29.5104 75.875 28.7083 75.0729 28.7083 74.0834ZM41.25 72.2917V61.5417C41.25 61.0665 41.0611 60.6109 40.7251 60.2749C40.3891 59.9389 39.9335 59.75 39.4583 59.75H21.5416C21.0664 59.75 20.6109 59.9389 20.2749 60.2749C19.9389 60.6109 19.75 61.0665 19.75 61.5417V72.2917C19.75 73.2812 18.9478 74.0834 17.9583 74.0834C16.9688 74.0834 16.1666 73.2812 16.1666 72.2917V61.5417C16.1666 60.1161 16.7333 58.7494 17.7413 57.7414C18.7493 56.7334 20.1161 56.1667 21.5416 56.1667H28.7083V52.5834C28.7083 51.5938 29.5104 50.7917 30.5 50.7917C31.4895 50.7917 32.2916 51.5938 32.2916 52.5834V56.1667H39.4583C40.8838 56.1667 42.2506 56.7334 43.2586 57.7414C44.2666 58.7494 44.8333 60.1161 44.8333 61.5417V72.2917C44.8333 73.2812 44.0311 74.0834 43.0416 74.0834C42.0521 74.0834 41.25 73.2812 41.25 72.2917Z" fill="black"></path>
<path d="M30.5007 65.4632C31.2522 65.4633 31.9957 65.6217 32.6826 65.9269L47.3518 72.4461L47.5828 72.5686C48.093 72.8911 48.4127 73.4546 48.4174 74.0698C48.4481 78.1764 47.3579 82.2141 45.2645 85.7472C44.7602 86.5982 43.6608 86.8792 42.8097 86.3753C41.9584 85.8709 41.6772 84.7718 42.1815 83.9205C43.7491 81.275 44.6439 78.2929 44.8043 75.2334L31.2268 69.2005C30.9982 69.099 30.7508 69.0466 30.5007 69.0465C30.2503 69.0465 30.0018 69.0989 29.7729 69.2005L16.1849 75.2369C16.3676 79.4916 17.9735 83.575 20.7673 86.818C21.4126 87.5677 21.3278 88.6988 20.5783 89.3445C19.8286 89.9898 18.6975 89.905 18.0518 89.1555C14.4395 84.9622 12.494 79.588 12.584 74.0541C12.5954 73.3567 13.0105 72.7294 13.6479 72.4461L28.3171 65.9269C29.0042 65.6216 29.7489 65.4632 30.5007 65.4632Z" fill="black"></path>
<path d="M43.9375 83.0417C45.3507 83.0417 46.4718 83.3173 47.4281 83.78C48.3481 84.2252 49.0438 84.8141 49.5644 85.248C50.3245 85.8815 50.4271 87.0127 49.7937 87.7728C49.1602 88.5328 48.029 88.6354 47.2689 88.002C46.7148 87.5403 46.3357 87.2331 45.8674 87.0064C45.4352 86.7973 44.8534 86.625 43.9375 86.625C43.0777 86.625 42.5036 86.792 42.0531 87.0082C41.5645 87.2427 41.1559 87.5625 40.5781 88.0248C40.0362 88.4583 39.3249 89.0344 38.4138 89.4717C37.4645 89.9274 36.3589 90.2084 34.9792 90.2084C33.5659 90.2084 32.4449 89.9327 31.4886 89.47C30.5686 89.0248 29.8729 88.4359 29.3522 88.002C28.7982 87.5403 28.419 87.2331 27.9507 87.0064C27.5185 86.7973 26.9368 86.625 26.0208 86.625C25.161 86.625 24.5869 86.792 24.1364 87.0082C23.6478 87.2427 23.2393 87.5625 22.6615 88.0248C22.1195 88.4583 21.4082 89.0344 20.4971 89.4717C19.5478 89.9274 18.4423 90.2084 17.0625 90.2084C15.6493 90.2084 14.5282 89.9327 13.5719 89.47C12.6519 89.0248 11.9562 88.4359 11.4355 88.002C10.6755 87.3685 10.5729 86.2373 11.2063 85.4772C11.8398 84.7172 12.971 84.6146 13.7311 85.248C14.2852 85.7097 14.6643 86.0169 15.1326 86.2436C15.5648 86.4527 16.1466 86.625 17.0625 86.625C17.9223 86.625 18.4964 86.4581 18.9469 86.2418C19.4355 86.0073 19.844 85.6875 20.4219 85.2253C20.9638 84.7917 21.6751 84.2156 22.5862 83.7783C23.5355 83.3227 24.6411 83.0417 26.0208 83.0417C27.4341 83.0417 28.5551 83.3173 29.5114 83.78C30.4314 84.2252 31.1271 84.8141 31.6478 85.248C32.2018 85.7097 32.581 86.0169 33.0493 86.2436C33.4815 86.4527 34.0632 86.625 34.9792 86.625C35.839 86.625 36.4131 86.4581 36.8636 86.2418C37.3522 86.0073 37.7607 85.6875 38.3385 85.2253C38.8805 84.7917 39.5918 84.2156 40.5029 83.7783C41.4521 83.3227 42.5577 83.0417 43.9375 83.0417Z" fill="black"></path>
<path d="M68.7083 33.0834V26.2561C68.7083 25.2666 69.5104 24.4645 70.5 24.4645C71.4895 24.4645 72.2916 25.2666 72.2916 26.2561V33.0834C72.2916 34.0729 71.4895 34.875 70.5 34.875C69.5104 34.875 68.7083 34.0729 68.7083 33.0834ZM81.25 31.2917V20.5417C81.25 20.0665 81.0611 19.6109 80.7251 19.2749C80.3891 18.9389 79.9335 18.75 79.4583 18.75H61.5416C61.0664 18.75 60.6109 18.9389 60.2749 19.2749C59.9389 19.6109 59.75 20.0665 59.75 20.5417V31.2917C59.75 32.2812 58.9478 33.0834 57.9583 33.0834C56.9688 33.0834 56.1666 32.2812 56.1666 31.2917V20.5417C56.1666 19.1161 56.7333 17.7494 57.7413 16.7414C58.7493 15.7334 60.1161 15.1667 61.5416 15.1667H68.7083V11.5834C68.7083 10.5938 69.5104 9.79169 70.5 9.79169C71.4895 9.79169 72.2916 10.5938 72.2916 11.5834V15.1667H79.4583C80.8838 15.1667 82.2506 15.7334 83.2586 16.7414C84.2666 17.7494 84.8333 19.1161 84.8333 20.5417V31.2917C84.8333 32.2812 84.0311 33.0834 83.0416 33.0834C82.0521 33.0834 81.25 32.2812 81.25 31.2917Z" fill="black"></path>
<path d="M70.5007 24.4632C71.2522 24.4633 71.9957 24.6217 72.6826 24.9269L87.3518 31.4461L87.5828 31.5686C88.093 31.8911 88.4127 32.4546 88.4174 33.0698C88.4481 37.1764 87.3579 41.2141 85.2645 44.7472C84.7602 45.5982 83.6608 45.8792 82.8097 45.3753C81.9584 44.8709 81.6772 43.7718 82.1815 42.9205C83.7491 40.275 84.6439 37.2929 84.8043 34.2334L71.2268 28.2005C70.9982 28.099 70.7508 28.0466 70.5007 28.0465C70.2503 28.0465 70.0018 28.0989 69.7729 28.2005L56.1849 34.2369C56.3676 38.4916 57.9735 42.575 60.7673 45.818C61.4126 46.5677 61.3278 47.6988 60.5783 48.3445C59.8286 48.9898 58.6975 48.905 58.0518 48.1555C54.4395 43.9622 52.494 38.588 52.584 33.0541C52.5954 32.3567 53.0105 31.7294 53.6479 31.4461L68.3171 24.9269C69.0042 24.6216 69.7489 24.4632 70.5007 24.4632Z" fill="black"></path>
<path d="M83.9375 42.0417C85.3507 42.0417 86.4718 42.3173 87.4281 42.78C88.3481 43.2252 89.0438 43.8141 89.5644 44.248C90.3245 44.8815 90.4271 46.0127 89.7937 46.7728C89.1602 47.5328 88.029 47.6354 87.2689 47.002C86.7148 46.5403 86.3357 46.2331 85.8674 46.0064C85.4352 45.7973 84.8534 45.625 83.9375 45.625C83.0777 45.625 82.5036 45.792 82.0531 46.0082C81.5645 46.2427 81.1559 46.5625 80.5781 47.0248C80.0362 47.4583 79.3249 48.0344 78.4138 48.4717C77.4645 48.9274 76.3589 49.2084 74.9792 49.2084C73.5659 49.2084 72.4449 48.9327 71.4886 48.47C70.5686 48.0248 69.8729 47.4359 69.3522 47.002C68.7982 46.5403 68.419 46.2331 67.9507 46.0064C67.5185 45.7973 66.9368 45.625 66.0208 45.625C65.161 45.625 64.5869 45.792 64.1364 46.0082C63.6478 46.2427 63.2393 46.5625 62.6615 47.0248C62.1195 47.4583 61.4082 48.0344 60.4971 48.4717C59.5478 48.9274 58.4423 49.2084 57.0625 49.2084C55.6493 49.2084 54.5282 48.9327 53.5719 48.47C52.6519 48.0248 51.9562 47.4359 51.4355 47.002C50.6755 46.3685 50.5729 45.2373 51.2063 44.4772C51.8398 43.7172 52.971 43.6146 53.7311 44.248C54.2852 44.7097 54.6643 45.0169 55.1326 45.2436C55.5648 45.4527 56.1466 45.625 57.0625 45.625C57.9223 45.625 58.4964 45.4581 58.9469 45.2418C59.4355 45.0073 59.844 44.6875 60.4219 44.2253C60.9638 43.7917 61.6751 43.2156 62.5862 42.7783C63.5355 42.3227 64.6411 42.0417 66.0208 42.0417C67.4341 42.0417 68.5551 42.3173 69.5114 42.78C70.4314 43.2252 71.1271 43.8141 71.6478 44.248C72.2018 44.7097 72.581 45.0169 73.0493 45.2436C73.4815 45.4527 74.0632 45.625 74.9792 45.625C75.839 45.625 76.4131 45.4581 76.8636 45.2418C77.3522 45.0073 77.7607 44.6875 78.3385 44.2253C78.8805 43.7917 79.5918 43.2156 80.5029 42.7783C81.4521 42.3227 82.5577 42.0417 83.9375 42.0417Z" fill="black"></path>
<path d="M46.0505 24H46.1218C46.62 24 47.0977 24.1998 47.4499 24.5555C47.8021 24.9111 48 25.3935 48 25.8964C48 26.3994 47.8021 26.8818 47.4499 27.2374C47.0977 27.5931 46.62 27.7929 46.1218 27.7929C43.6896 27.7929 41.8659 27.7929 40.4178 27.9105C38.966 28.028 38.1077 28.2499 37.5292 28.5609C36.2443 29.266 35.2124 30.3623 34.5805 31.6938C34.2593 32.3652 34.0546 33.2224 33.9457 34.6295C33.848 35.8774 33.8367 37.4287 33.833 39.5223L35.1345 38.21C35.4867 37.8542 35.9645 37.6541 36.4627 37.654C36.9609 37.6538 37.4388 37.8535 37.7912 38.2091C38.1436 38.5647 38.3417 39.0471 38.3419 39.5501C38.3421 40.0532 38.1443 40.5357 37.7921 40.8916L33.2845 45.443C33.1045 45.6252 32.8897 45.7685 32.6531 45.8641C32.4165 45.9598 32.1631 46.0058 31.9083 45.9994C31.6536 45.993 31.4028 45.9344 31.1712 45.827C30.9396 45.7196 30.732 45.5657 30.5612 45.3748L26.4856 40.8233C26.3201 40.6386 26.1922 40.4229 26.1093 40.1883C26.0264 39.9537 25.99 39.705 26.0023 39.4563C26.0146 39.2075 26.0753 38.9636 26.181 38.7386C26.2866 38.5135 26.4351 38.3117 26.618 38.1446C26.8009 37.9775 27.0146 37.8484 27.2469 37.7647C27.4792 37.6809 27.7255 37.6442 27.9719 37.6566C28.2182 37.6691 28.4597 37.7304 28.6826 37.837C28.9055 37.9437 29.1054 38.0936 29.2709 38.2783L30.0785 39.181C30.0804 37.2504 30.0973 35.6612 30.2006 34.3356C30.3264 32.7065 30.5875 31.3165 31.2017 30.0383C32.1795 27.9862 33.7741 26.2984 35.7581 25.2156C37.0165 24.5348 38.4927 24.2617 40.1192 24.1309C41.7344 24 43.7084 24 46.0505 24Z" fill="black"></path>
<path d="M64.1012 79.9252L63.8205 79.7346C62.4161 78.7487 61.1111 77.6274 59.9241 76.3868C57.8385 74.1946 55.5 70.9085 55.5 67.0299C55.5 62.2584 59.3599 57.5 65 57.5C70.6401 57.5 74.5 62.2584 74.5 67.0314C74.5 70.9099 72.1615 74.1961 70.0759 76.3854C68.8889 77.626 67.5839 78.7472 66.1795 79.7331C66.0606 79.8162 65.9671 79.8797 65.8988 79.9237C65.6022 80.1217 65.2996 80.3094 65 80.5C64.7004 80.3094 64.3978 80.1217 64.1012 79.9252ZM65 69.9641C65.7752 69.9641 66.5187 69.6552 67.0669 69.1052C67.6151 68.5552 67.9231 67.8092 67.9231 67.0314C67.9231 66.2536 67.6151 65.5076 67.0669 64.9576C66.5187 64.4076 65.7752 64.0987 65 64.0987C64.2248 64.0987 63.4813 64.4076 62.9331 64.9576C62.3849 65.5076 62.0769 66.2536 62.0769 67.0314C62.0769 67.8092 62.3849 68.5552 62.9331 69.1052C63.4813 69.6552 64.2248 69.9641 65 69.9641Z" fill="black"></path>
<path d="M30 40.0505V40.1218C30 40.62 30.1998 41.0977 30.5555 41.4499C30.9111 41.8021 31.3935 42 31.8964 42C32.3994 42 32.8818 41.8021 33.2374 41.4499C33.5931 41.0977 33.7929 40.62 33.7929 40.1218C33.7929 37.6896 33.7929 35.8659 33.9105 34.4178C34.028 32.966 34.2499 32.1077 34.5609 31.5292C35.266 30.2443 36.3623 29.2124 37.6938 28.5805C38.3652 28.2593 39.2224 28.0546 40.6295 27.9457C41.8774 27.848 43.4287 27.8367 45.5223 27.833L44.21 29.1345C43.8542 29.4867 43.6541 29.9645 43.654 30.4627C43.6538 30.9609 43.8535 31.4388 44.2091 31.7912C44.5647 32.1436 45.0471 32.3417 45.5501 32.3419C46.0532 32.3421 46.5357 32.1443 46.8916 31.7921L51.443 27.2845C51.6252 27.1045 51.7685 26.8897 51.8641 26.6531C51.9598 26.4165 52.0058 26.1631 51.9994 25.9083C51.993 25.6536 51.9344 25.4028 51.827 25.1712C51.7196 24.9396 51.5657 24.732 51.3748 24.5612L46.8233 20.4856C46.6386 20.3201 46.4229 20.1922 46.1883 20.1093C45.9537 20.0264 45.705 19.99 45.4563 20.0023C45.2075 20.0146 44.9636 20.0753 44.7386 20.181C44.5135 20.2866 44.3117 20.4351 44.1446 20.618C43.9775 20.8009 43.8484 21.0146 43.7647 21.2469C43.6809 21.4792 43.6442 21.7255 43.6566 21.9719C43.6691 22.2182 43.7304 22.4597 43.837 22.6826C43.9437 22.9055 44.0936 23.1054 44.2783 23.2709L45.181 24.0785C43.2504 24.0804 41.6612 24.0973 40.3356 24.2006C38.7065 24.3264 37.3165 24.5875 36.0383 25.2017C33.9862 26.1795 32.2984 27.7741 31.2156 29.7581C30.5348 31.0165 30.2617 32.4927 30.1309 34.1192C30 35.7344 30 37.7084 30 40.0505Z" fill="black"></path>
</svg>