<svg width="100" height="100" viewBox="0 0 100 100" fill="none" xmlns="http://www.w3.org/2000/svg">
<path d="M41.5834 44.8333V39.435C41.5834 38.6526 42.2177 38.0184 43.0001 38.0184C43.7825 38.0184 44.4167 38.6526 44.4167 39.435V44.8333C44.4167 45.6157 43.7825 46.25 43.0001 46.25C42.2177 46.25 41.5834 45.6157 41.5834 44.8333ZM51.5001 43.4167V34.9167C51.5001 34.5409 51.3507 34.1807 51.085 33.915C50.8194 33.6494 50.4591 33.5 50.0834 33.5H35.9167C35.541 33.5 35.1808 33.6494 34.9151 33.915C34.6494 34.1807 34.5001 34.5409 34.5001 34.9167V43.4167C34.5001 44.1991 33.8658 44.8333 33.0834 44.8333C32.301 44.8333 31.6667 44.1991 31.6667 43.4167V34.9167C31.6667 33.7895 32.1148 32.7088 32.9119 31.9118C33.7089 31.1147 34.7896 30.6667 35.9167 30.6667H41.5834V27.8333C41.5834 27.0509 42.2177 26.4167 43.0001 26.4167C43.7825 26.4167 44.4167 27.0509 44.4167 27.8333V30.6667H50.0834C51.2106 30.6667 52.2913 31.1147 53.0883 31.9118C53.8853 32.7088 54.3334 33.7895 54.3334 34.9167V43.4167C54.3334 44.1991 53.6992 44.8333 52.9167 44.8333C52.1343 44.8333 51.5001 44.1991 51.5001 43.4167Z" fill="black"></path>
<path d="M43.0008 38.0174C43.5951 38.0175 44.1829 38.1428 44.726 38.384L56.325 43.5388L56.5076 43.6356C56.911 43.8906 57.1638 44.3362 57.1675 44.8227C57.1918 48.0697 56.3297 51.2623 54.6745 54.0559C54.2757 54.7288 53.4065 54.951 52.7335 54.5526C52.0604 54.1537 51.8381 53.2847 52.2368 52.6116C53.4763 50.5198 54.1838 48.1618 54.3106 45.7427L43.575 40.9725C43.3942 40.8922 43.1986 40.8508 43.0008 40.8507C42.8028 40.8507 42.6063 40.8921 42.4253 40.9725L31.6813 45.7454C31.8258 49.1096 33.0956 52.3384 35.3046 54.9026C35.8149 55.4953 35.7478 56.3897 35.1552 56.9003C34.5624 57.4105 33.668 57.3435 33.1575 56.7509C30.3013 53.4352 28.7629 49.1859 28.8342 44.8102C28.8432 44.2588 29.1714 43.7628 29.6753 43.5388L41.2743 38.384C41.8175 38.1427 42.4064 38.0174 43.0008 38.0174Z" fill="black"></path>
<path d="M53.6251 51.9167C54.7426 51.9167 55.629 52.1346 56.3851 52.5005C57.1125 52.8525 57.6626 53.3181 58.0743 53.6612C58.6753 54.1621 58.7564 55.0565 58.2556 55.6575C57.7547 56.2585 56.8602 56.3396 56.2592 55.8388C55.8211 55.4737 55.5213 55.2308 55.1511 55.0516C54.8093 54.8862 54.3493 54.75 53.6251 54.75C52.9453 54.75 52.4913 54.882 52.1351 55.053C51.7488 55.2384 51.4257 55.4913 50.9689 55.8568C50.5403 56.1996 49.9779 56.6551 49.2575 57.0009C48.5069 57.3612 47.6328 57.5833 46.5418 57.5833C45.4243 57.5833 44.5379 57.3654 43.7818 56.9995C43.0544 56.6475 42.5042 56.1819 42.0926 55.8388C41.6545 55.4737 41.3547 55.2308 40.9844 55.0516C40.6426 54.8862 40.1827 54.75 39.4584 54.75C38.7786 54.75 38.3246 54.882 37.9684 55.053C37.5821 55.2384 37.2591 55.4913 36.8022 55.8568C36.3737 56.1996 35.8113 56.6551 35.0908 57.0009C34.3403 57.3612 33.4661 57.5833 32.3751 57.5833C31.2577 57.5833 30.3713 57.3654 29.6151 56.9995C28.8877 56.6475 28.3376 56.1819 27.9259 55.8388C27.325 55.3379 27.2438 54.4435 27.7447 53.8424C28.2456 53.2415 29.14 53.1604 29.741 53.6612C30.1791 54.0263 30.4789 54.2692 30.8491 54.4484C31.1909 54.6138 31.6509 54.75 32.3751 54.75C33.0549 54.75 33.5089 54.618 33.8651 54.447C34.2514 54.2616 34.5745 54.0087 35.0314 53.6432C35.4599 53.3004 36.0223 52.8449 36.7427 52.4991C37.4933 52.1388 38.3675 51.9167 39.4584 51.9167C40.5759 51.9167 41.4623 52.1346 42.2185 52.5005C42.9459 52.8525 43.496 53.3181 43.9077 53.6612C44.3457 54.0263 44.6456 54.2692 45.0158 54.4484C45.3576 54.6138 45.8176 54.75 46.5418 54.75C47.2216 54.75 47.6756 54.618 48.0318 54.447C48.4181 54.2616 48.7411 54.0087 49.198 53.6432C49.6265 53.3004 50.189 52.8449 50.9094 52.4991C51.6599 52.1388 52.5341 51.9167 53.6251 51.9167Z" fill="black"></path>
<path d="M64.6012 85.4252L64.3205 85.2346C62.9161 84.2487 61.6111 83.1274 60.4241 81.8868C58.3385 79.6946 56 76.4085 56 72.5299C56 67.7584 59.8599 63 65.5 63C71.1401 63 75 67.7584 75 72.5314C75 76.4099 72.6615 79.6961 70.5759 81.8854C69.3889 83.126 68.0839 84.2472 66.6795 85.2331C66.5606 85.3162 66.4671 85.3797 66.3988 85.4237C66.1022 85.6217 65.7996 85.8094 65.5 86C65.2004 85.8094 64.8978 85.6217 64.6012 85.4252ZM65.5 75.4641C66.2752 75.4641 67.0187 75.1552 67.5669 74.6052C68.1151 74.0552 68.4231 73.3092 68.4231 72.5314C68.4231 71.7536 68.1151 71.0076 67.5669 70.4576C67.0187 69.9076 66.2752 69.5987 65.5 69.5987C64.7248 69.5987 63.9813 69.9076 63.4331 70.4576C62.8849 71.0076 62.5769 71.7536 62.5769 72.5314C62.5769 73.3092 62.8849 74.0552 63.4331 74.6052C63.9813 75.1552 64.7248 75.4641 65.5 75.4641Z" fill="black"></path>
<path fill-rule="evenodd" clip-rule="evenodd" d="M54.6396 85.2002C56.0088 85.0216 57.2638 85.9864 57.4424 87.3555C57.6209 88.7246 56.6552 89.9796 55.2861 90.1582C53.555 90.384 51.7904 90.5 50 90.5C48.2096 90.5 46.445 90.384 44.7139 90.1582C43.3448 89.9796 42.3791 88.7246 42.5576 87.3555C42.7362 85.9864 43.9912 85.0216 45.3604 85.2002C46.8777 85.3981 48.4263 85.5 50 85.5C51.5737 85.5 53.1223 85.3981 54.6396 85.2002ZM24.8838 78.626C25.7251 77.5312 27.2949 77.3257 28.3896 78.167C30.8332 80.0448 33.5275 81.6114 36.4121 82.8076C37.6872 83.3367 38.2924 84.799 37.7637 86.0742C37.2348 87.3496 35.7715 87.9547 34.4961 87.4258C31.2023 86.0599 28.1287 84.2727 25.3428 82.1318C24.248 81.2906 24.0426 79.7208 24.8838 78.626ZM13.9258 62.2363C15.201 61.7076 16.6633 62.3128 17.1924 63.5879C18.3886 66.4725 19.9552 69.1668 21.833 71.6104C22.6743 72.7051 22.4688 74.2749 21.374 75.1162C20.2792 75.9574 18.7094 75.752 17.8682 74.6572C15.7273 71.8713 13.9401 68.7977 12.5742 65.5039C12.0453 64.2285 12.6504 62.7652 13.9258 62.2363ZM82.8076 63.5879C83.3367 62.3128 84.799 61.7076 86.0742 62.2363C87.3496 62.7652 87.9547 64.2285 87.4258 65.5039C86.0599 68.7977 84.2727 71.8713 82.1318 74.6572C81.2906 75.752 79.7208 75.9574 78.626 75.1162C77.5312 74.2749 77.3257 72.7051 78.167 71.6104C80.0448 69.1668 81.6114 66.4725 82.8076 63.5879ZM12.6445 42.5576C14.0136 42.7362 14.9784 43.9912 14.7998 45.3604C14.6019 46.8777 14.5 48.4263 14.5 50C14.5 51.5737 14.6019 53.1223 14.7998 54.6396C14.9784 56.0088 14.0136 57.2638 12.6445 57.4424C11.2754 57.6209 10.0204 56.6552 9.8418 55.2861C9.616 53.555 9.5 51.7904 9.5 50C9.5 48.2096 9.616 46.445 9.8418 44.7139C10.0204 43.3448 11.2754 42.3791 12.6445 42.5576ZM87.3555 42.5576C88.7246 42.3791 89.9796 43.3448 90.1582 44.7139C90.384 46.445 90.5 48.2096 90.5 50C90.5 51.7904 90.384 53.555 90.1582 55.2861C89.9796 56.6552 88.7246 57.6209 87.3555 57.4424C85.9864 57.2638 85.0216 56.0088 85.2002 54.6396C85.3981 53.1223 85.5 51.5737 85.5 50C85.5 48.4263 85.3981 46.8777 85.2002 45.3604C85.0216 43.9912 85.9864 42.7362 87.3555 42.5576ZM17.8682 25.3428C18.7094 24.248 20.2792 24.0426 21.374 24.8838C22.4688 25.7251 22.6743 27.2949 21.833 28.3896C19.9552 30.8332 18.3886 33.5275 17.1924 36.4121C16.6633 37.6872 15.201 38.2924 13.9258 37.7637C12.6504 37.2348 12.0453 35.7715 12.5742 34.4961C13.9401 31.2023 15.7273 28.1287 17.8682 25.3428ZM78.626 24.8838C79.7208 24.0426 81.2906 24.248 82.1318 25.3428C84.2727 28.1287 86.0599 31.2023 87.4258 34.4961C87.9547 35.7715 87.3496 37.2348 86.0742 37.7637C84.799 38.2924 83.3367 37.6871 82.8076 36.4121C81.6114 33.5275 80.0448 30.8332 78.167 28.3896C77.3257 27.2949 77.5312 25.7251 78.626 24.8838ZM34.4961 12.5742C35.7715 12.0453 37.2348 12.6504 37.7637 13.9258C38.2924 15.201 37.6871 16.6633 36.4121 17.1924C33.5275 18.3886 30.8332 19.9552 28.3896 21.833C27.2949 22.6743 25.7251 22.4688 24.8838 21.374C24.0426 20.2792 24.248 18.7094 25.3428 17.8682C28.1287 15.7273 31.2023 13.9401 34.4961 12.5742ZM62.2363 13.9258C62.7652 12.6504 64.2285 12.0453 65.5039 12.5742C68.7977 13.9401 71.8713 15.7273 74.6572 17.8682C75.752 18.7094 75.9574 20.2792 75.1162 21.374C74.2749 22.4688 72.7051 22.6743 71.6104 21.833C69.1668 19.9552 66.4725 18.3886 63.5879 17.1924C62.3128 16.6633 61.7076 15.201 62.2363 13.9258ZM50 9.5C51.7904 9.5 53.555 9.616 55.2861 9.8418C56.6552 10.0204 57.6209 11.2754 57.4424 12.6445C57.2638 14.0136 56.0088 14.9784 54.6396 14.7998C53.1223 14.6019 51.5737 14.5 50 14.5C48.4263 14.5 46.8777 14.6019 45.3604 14.7998C43.9912 14.9784 42.7362 14.0136 42.5576 12.6445C42.3791 11.2754 43.3448 10.0204 44.7139 9.8418C46.445 9.616 48.2096 9.5 50 9.5Z" fill="black"></path>
</svg>