<svg width="100" height="100" viewBox="0 0 100 100" fill="none" xmlns="http://www.w3.org/2000/svg">
<path d="M10 88.2501V60.2003C10 59.7328 10.1871 59.2832 10.5195 58.9545C13.1823 56.3214 15.7133 55.1323 18.251 55.0104C20.7116 54.8923 22.892 55.8029 24.7588 56.7022C28.7049 58.6033 31.5005 60.417 35.4844 58.4794C36.0266 58.2157 36.6667 58.2487 37.178 58.5683C37.6893 58.8881 38 59.4502 38 60.0533V76.7458C38 77.4153 37.6176 78.0267 37.0156 78.3197C31.1999 81.1505 26.6451 78.1922 23.2412 76.5527C21.4333 75.6819 19.9385 75.1313 18.4185 75.2044C17.0885 75.2683 15.4925 75.83 13.5 77.6481V88.2501C13.5 89.2165 12.7165 90 11.75 90C10.7835 90 10 89.2165 10 88.2501ZM18.4185 58.5068C17.0886 58.5707 15.4925 59.1324 13.5 60.9505V73.2597C15.103 72.2713 16.6757 71.7837 18.251 71.708C20.7116 71.5899 22.892 72.5007 24.7588 73.3998C28.3723 75.1402 31.0201 76.8044 34.5 75.5838V62.5244C29.8677 63.599 26.1381 61.2507 23.2412 59.8551C21.4334 58.9841 19.9384 58.4338 18.4185 58.5068Z" fill="black"></path>
<path d="M62 43.2501V15.2003C62 14.7328 62.1871 14.2832 62.5195 13.9545C65.1823 11.3214 67.7133 10.1323 70.251 10.0104C72.7116 9.89231 74.892 10.8029 76.7588 11.7022C80.7049 13.6033 83.5005 15.417 87.4844 13.4794C88.0266 13.2157 88.6667 13.2487 89.178 13.5683C89.6893 13.8881 90 14.4502 90 15.0533V31.7458C90 32.4153 89.6176 33.0267 89.0156 33.3197C83.1999 36.1505 78.6451 33.1922 75.2412 31.5527C73.4333 30.6819 71.9385 30.1313 70.4185 30.2044C69.0885 30.2683 67.4925 30.83 65.5 32.6481V43.2501C65.5 44.2165 64.7165 45 63.75 45C62.7835 45 62 44.2165 62 43.2501ZM70.4185 13.5068C69.0886 13.5707 67.4925 14.1324 65.5 15.9505V28.2597C67.103 27.2713 68.6757 26.7837 70.251 26.708C72.7116 26.5899 74.892 27.5007 76.7588 28.3998C80.3723 30.1402 83.0201 31.8044 86.5 30.5838V17.5244C81.8677 18.599 78.1381 16.2507 75.2412 14.8551C73.4334 13.9841 71.9384 13.4338 70.4185 13.5068Z" fill="black"></path>
<path d="M48.0505 26H48.1218C48.62 26 49.0977 26.1998 49.4499 26.5555C49.8021 26.9111 50 27.3935 50 27.8964C50 28.3994 49.8021 28.8818 49.4499 29.2374C49.0977 29.5931 48.62 29.7929 48.1218 29.7929C45.6896 29.7929 43.8659 29.7929 42.4178 29.9105C40.966 30.028 40.1077 30.2499 39.5292 30.5609C38.2443 31.266 37.2124 32.3623 36.5805 33.6938C36.2593 34.3652 36.0546 35.2224 35.9457 36.6295C35.848 37.8774 35.8367 39.4287 35.833 41.5223L37.1345 40.21C37.4867 39.8542 37.9645 39.6541 38.4627 39.654C38.9609 39.6538 39.4388 39.8535 39.7912 40.2091C40.1436 40.5647 40.3417 41.0471 40.3419 41.5501C40.3421 42.0532 40.1443 42.5357 39.7921 42.8916L35.2845 47.443C35.1045 47.6252 34.8897 47.7685 34.6531 47.8641C34.4165 47.9598 34.1631 48.0058 33.9083 47.9994C33.6536 47.993 33.4028 47.9344 33.1712 47.827C32.9396 47.7196 32.732 47.5657 32.5612 47.3748L28.4856 42.8233C28.3201 42.6386 28.1922 42.4229 28.1093 42.1883C28.0264 41.9537 27.99 41.705 28.0023 41.4563C28.0146 41.2075 28.0753 40.9636 28.181 40.7386C28.2866 40.5135 28.4351 40.3117 28.618 40.1446C28.8009 39.9775 29.0146 39.8484 29.2469 39.7647C29.4792 39.6809 29.7255 39.6442 29.9719 39.6566C30.2182 39.6691 30.4597 39.7304 30.6826 39.837C30.9055 39.9437 31.1054 40.0936 31.2709 40.2783L32.0785 41.181C32.0804 39.2504 32.0973 37.6612 32.2006 36.3356C32.3264 34.7065 32.5875 33.3165 33.2017 32.0383C34.1795 29.9862 35.7741 28.2984 37.7581 27.2156C39.0165 26.5348 40.4927 26.2617 42.1192 26.1309C43.7344 26 45.7084 26 48.0505 26Z" fill="black"></path>
<path d="M51.9495 73H51.8782C51.38 73 50.9023 72.8002 50.5501 72.4445C50.1979 72.0889 50 71.6065 50 71.1036C50 70.6006 50.1979 70.1182 50.5501 69.7626C50.9023 69.4069 51.38 69.2071 51.8782 69.2071C54.3104 69.2071 56.1341 69.2071 57.5822 69.0895C59.034 68.972 59.8923 68.7501 60.4708 68.4391C61.7557 67.734 62.7876 66.6377 63.4195 65.3062C63.7407 64.6348 63.9454 63.7776 64.0543 62.3705C64.152 61.1226 64.1633 59.5713 64.167 57.4777L62.8655 58.79C62.5133 59.1458 62.0355 59.3459 61.5373 59.346C61.0391 59.3462 60.5612 59.1465 60.2088 58.7909C59.8564 58.4353 59.6583 57.9529 59.6581 57.4499C59.6579 56.9468 59.8557 56.4643 60.2079 56.1084L64.7155 51.557C64.8955 51.3748 65.1103 51.2315 65.3469 51.1359C65.5835 51.0402 65.8369 50.9942 66.0917 51.0006C66.3464 51.007 66.5972 51.0656 66.8288 51.173C67.0604 51.2804 67.268 51.4343 67.4388 51.6252L71.5144 56.1767C71.6799 56.3614 71.8078 56.5771 71.8907 56.8117C71.9736 57.0463 72.01 57.295 71.9977 57.5437C71.9854 57.7925 71.9247 58.0364 71.819 58.2614C71.7134 58.4865 71.5649 58.6883 71.382 58.8554C71.1991 59.0225 70.9854 59.1516 70.7531 59.2353C70.5208 59.3191 70.2745 59.3558 70.0281 59.3434C69.7818 59.3309 69.5403 59.2696 69.3174 59.163C69.0945 59.0563 68.8946 58.9064 68.7291 58.7217L67.9215 57.819C67.9196 59.7496 67.9027 61.3388 67.7994 62.6644C67.6736 64.2935 67.4125 65.6835 66.7983 66.9617C65.8205 69.0138 64.2259 70.7016 62.2419 71.7844C60.9835 72.4652 59.5073 72.7383 57.8808 72.8691C56.2656 73 54.2916 73 51.9495 73Z" fill="black"></path>
</svg>